<svg xmlns="http://www.w3.org/2000/svg" width="192" height="288" viewBox="0 -8 16 24" shape-rendering="crispEdges">
<path fill="#2A1B12" d="M4 0h4v1H4z M3 1h6v1H3z M3 2h1v1H3z M8 2h1v1H8z"></path>
<path fill="#C98A5E" d="M4 2h4v1H4z M3 3h6v1H3z M4 4h4v1H4z M1 6h1v2H1z M10 6h1v1H10z M3 11h2v2H3z M7 11h2v2H7z"></path>
<path fill="#16123A" d="M5 3h1v1H5z M7 3h1v1H7z"></path>
<path fill="#FFD23F" d="M2 5h8v2H2z M3 7h6v2H3z"></path>
<path fill="#F7F3E8" d="M3 9h6v1H3z M3 10h2v1H3z M7 10h2v1H7z"></path>
<path fill="#FF4F7B" d="M3 13h2v1H3z M7 13h2v1H7z M2 14h3v1H2z M7 14h3v1H7z"></path>
<path fill="#8C87B8" d="M10 -7h1v6H10z M12 -7h1v6H12z M9 -6h5v1H9z M9 -4h5v1H9z"></path>
<path fill="#D8F03A" d="M10 -8h3v1H10z M9 -7h1v1H9z M13 -7h1v1H13z M8 -6h1v2H8z M14 -6h1v3H14z"></path>
<path fill="#F7F3E8" d="M8 -4h1v2H8z M14 -3h1v1H14z M9 -2h1v1H9z M13 -2h1v1H13z M10 -1h3v1H10z M10 0h1v1H10z M12 0h1v1H12z M11 1h1v6H11z"></path>
<path fill="#D8F03A" d="M11 2h1v1H11z"></path>
</svg>